<svg xmlns="http://www.w3.org/2000/svg" width="201" height="206" viewBox="0 0 201 206">
    <g fill="none" fill-rule="evenodd" transform="translate(0 1)">
        <path stroke="#E3336E" d="M81.998 196.457a97.768 97.768 0 0 1-6.934-1.546 99.038 99.038 0 0 1-65.456-55.873 98.518 98.518 0 0 1-2.637-6.641c-13.12-36.91-3.2-78.086 25.29-104.97M188.216 144.126a99.107 99.107 0 0 1-58.959 49.624 98.5 98.5 0 0 1-6.619 1.788M193.43 131.938c-.287.817-1.458 4.234-1.764 5.04M159.367 20.171a99.083 99.083 0 0 1 33.096 43.818 98.126 98.126 0 0 1 5.212 19.37 99.54 99.54 0 0 1 1.276 15.924 99.712 99.712 0 0 1-.866 13.144 98.367 98.367 0 0 1-2.288 11.72M70.949 4.826A98.48 98.48 0 0 1 92.637.729C95.107.544 97.6.451 100.119.45a98.641 98.641 0 0 1 33.978 5.996 97.829 97.829 0 0 1 6.965 2.857M39.41 21.288a99.319 99.319 0 0 1 10.965-7.425" opacity=".1"/>
        <circle cx="100.596" cy="99.596" r="90.596" fill="#E3336E" opacity=".1"/>
        <path stroke="#AE003B" stroke-width="2.287" d="M93.822 203.08l-93.69.062M129.558 203.055l-27.768.019M200.066 203.008l-65.437.044" opacity=".15"/>
        <path fill="#E9E3E8" d="M146.657 96.148h-9.008a8.41 8.41 0 1 1 0 16.82h9.008a8.41 8.41 0 1 0 0-16.82z"/>
        <path d="M113.645 43.659a3.304 3.304 0 0 0 .003-6.304 8.248 8.248 0 0 1-.003 6.304z"/>
        <path fill="#E0004D" d="M136.365 148l11.57-32.542h-29.753z"/>
        <path fill="#C9C9C9" d="M73.553 66.644h57.853v74.847H73.553z"/>
        <path fill="#FFF" d="M66.941 60.136h57.853v68.339H66.941z"/>
        <path fill="#F14580" d="M136.365 148l-18.183-32.542H52.065L70.247 148z"/>
        <path fill="#E0004D" d="M80.165 71.525c-2.74 0-4.96-2.185-4.96-4.88v-1.628h3.307v1.627c0 .898.74 1.627 1.653 1.627.912 0 1.653-.729 1.653-1.627v-8.136c0-1.797-1.48-3.254-3.306-3.254-1.827 0-3.306 1.457-3.306 3.254v1.628H71.9v-1.628c0-3.594 2.96-6.508 6.612-6.508 3.65 0 6.611 2.914 6.611 6.508v8.136c0 2.696-2.22 4.881-4.958 4.881z"/>
        <g fill="#F14580">
            <path d="M139.67 87.797h-3.305v-22.78c0-1.798-1.48-3.254-3.306-3.254h-3.306v-3.255h3.306c3.651 0 6.612 2.915 6.612 6.509v22.78zM136.365 91.051h3.306v3.254h-3.306zM58.677 84.542h3.306v22.78h-3.306zM58.677 78.034h3.306v3.254h-3.306z"/>
        </g>
        <path fill="#E0004D" d="M106.612 74.78H100V68.27h-6.612v6.509h-6.612v6.508h6.612v6.509H100v-6.509h6.612z"/>
        <g fill="#999">
            <path d="M76.859 92.678h3.306v3.254h-3.306zM83.47 92.678h34.713v3.254H83.47zM73.553 99.186h44.63v3.254h-44.63zM73.553 105.695h38.018v3.254H73.553zM116.249 66.644h3.4v3.254h-3.4zM116.53 73.153h3.306v3.254h-3.306z"/>
        </g>
    </g>
</svg>
